<mxfile host="app.diagrams.net" modified="2022-05-24T20:53:27.533Z" agent="5.0 (Windows)" etag="zllcge_8wD0NyUyzaFhX" version="18.1.2" type="github" pages="7">
  <diagram id="dAfNnbwmk66fKgJQbiKN" name="图例">
    <mxGraphModel dx="1630" dy="1742" grid="1" gridSize="10" guides="1" tooltips="1" connect="1" arrows="1" fold="1" page="1" pageScale="1" pageWidth="827" pageHeight="1169" math="0" shadow="0">
      <root>
        <mxCell id="0" />
        <mxCell id="1" parent="0" />
        <mxCell id="o6Mup9R42cLi4TRuiqjT-1" value="&lt;div style=&quot;font-size: 10px;&quot;&gt;代理协议&lt;/div&gt;&lt;i&gt;传输层协议&lt;/i&gt;" style="shape=or;whiteSpace=wrap;html=1;fillColor=#f8cecc;strokeColor=#b85450;fontFamily=JetBrains Mono;fontSource=https%3A%2F%2Ffonts.googleapis.com%2Fcss%3Ffamily%3DJetBrains%2BMono;fontSize=10;" vertex="1" parent="1">
          <mxGeometry x="-490" y="9.999999999999986" width="69" height="43.64" as="geometry" />
        </mxCell>
        <mxCell id="_T0HbXTaDHtxMW7bPjik-1" value="&lt;div style=&quot;font-size: 10px;&quot;&gt;代理协议&lt;/div&gt;&lt;i&gt;传输层协议&lt;/i&gt;" style="shape=or;whiteSpace=wrap;html=1;fillColor=#d5e8d4;strokeColor=#82b366;fontFamily=JetBrains Mono;fontSource=https%3A%2F%2Ffonts.googleapis.com%2Fcss%3Ffamily%3DJetBrains%2BMono;fontSize=10;" vertex="1" parent="1">
          <mxGeometry x="-340" y="10" width="69" height="43.64" as="geometry" />
        </mxCell>
        <mxCell id="qxkkCo4nE8JRs2fD6mIy-1" value="TCP" style="html=1;shadow=0;dashed=0;align=center;verticalAlign=middle;shape=mxgraph.arrows2.arrow;dy=0;dx=10;notch=0;fillColor=#dae8fc;strokeColor=#6c8ebf;fontFamily=JetBrains Mono;fontSource=https%3A%2F%2Ffonts.googleapis.com%2Fcss%3Ffamily%3DJetBrains%2BMono;" vertex="1" parent="1">
          <mxGeometry x="-490" y="-60" width="120" height="20" as="geometry" />
        </mxCell>
        <mxCell id="TTGA-UtNI_HF1vfTKt_W-1" value="" style="group;fontFamily=JetBrains Mono;fontSource=https%3A%2F%2Ffonts.googleapis.com%2Fcss%3Ffamily%3DJetBrains%2BMono;" vertex="1" connectable="0" parent="1">
          <mxGeometry x="-340" y="-60" width="119" height="20" as="geometry" />
        </mxCell>
        <mxCell id="TTGA-UtNI_HF1vfTKt_W-2" value="TCP" style="html=1;shadow=0;dashed=0;align=center;verticalAlign=middle;shape=mxgraph.arrows2.arrow;dy=0;dx=10;notch=0;fillColor=#dae8fc;strokeColor=#6c8ebf;fontFamily=JetBrains Mono;fontSource=https%3A%2F%2Ffonts.googleapis.com%2Fcss%3Ffamily%3DJetBrains%2BMono;" vertex="1" parent="TTGA-UtNI_HF1vfTKt_W-1">
          <mxGeometry y="-10" width="119" height="15.45" as="geometry" />
        </mxCell>
        <mxCell id="TTGA-UtNI_HF1vfTKt_W-3" value="&lt;font style=&quot;font-size: 10px;&quot;&gt;代理协议+&lt;i&gt;传输层协议&lt;/i&gt;&lt;br&gt;&lt;/font&gt;" style="html=1;shadow=0;dashed=0;align=center;verticalAlign=middle;shape=mxgraph.arrows2.arrow;dy=0;dx=10;notch=0;fillColor=#fff2cc;strokeColor=#d6b656;fontFamily=JetBrains Mono;fontSource=https%3A%2F%2Ffonts.googleapis.com%2Fcss%3Ffamily%3DJetBrains%2BMono;" vertex="1" parent="TTGA-UtNI_HF1vfTKt_W-1">
          <mxGeometry y="5.45" width="119" height="14.55" as="geometry" />
        </mxCell>
        <mxCell id="pmOqeP7_Yko--YPSagWL-1" value="" style="rounded=0;whiteSpace=wrap;html=1;fontFamily=JetBrains Mono;fontSource=https%3A%2F%2Ffonts.googleapis.com%2Fcss%3Ffamily%3DJetBrains%2BMono;" vertex="1" parent="1">
          <mxGeometry x="-490" y="130" width="90" height="70" as="geometry" />
        </mxCell>
        <mxCell id="pmOqeP7_Yko--YPSagWL-2" value="&lt;font style=&quot;font-size: 12px;&quot;&gt;名称&lt;/font&gt;" style="text;strokeColor=none;fillColor=none;html=1;fontSize=16;fontStyle=0;verticalAlign=middle;align=center;fontFamily=JetBrains Mono;fontSource=https%3A%2F%2Ffonts.googleapis.com%2Fcss%3Ffamily%3DJetBrains%2BMono;" vertex="1" parent="1">
          <mxGeometry x="-496" y="108" width="98" height="30" as="geometry" />
        </mxCell>
        <mxCell id="Jau65hqgs5f0Z8g7lOGl-1" value="&lt;div&gt;浏览器&lt;/div&gt;" style="rounded=1;whiteSpace=wrap;html=1;fontFamily=JetBrains Mono;fontSource=https%3A%2F%2Ffonts.googleapis.com%2Fcss%3Ffamily%3DJetBrains%2BMono;" vertex="1" parent="1">
          <mxGeometry x="-344" y="130" width="88.18" height="66" as="geometry" />
        </mxCell>
        <mxCell id="Jau65hqgs5f0Z8g7lOGl-2" value="&lt;p style=&quot;line-height: 0.9;&quot;&gt;&lt;/p&gt;&lt;div&gt;连接&lt;/div&gt;&lt;div&gt;&lt;font style=&quot;font-size: 12px; line-height: 0.9;&quot; color=&quot;#949494&quot;&gt;从客户端指向服务器&lt;/font&gt;&lt;/div&gt;&lt;p&gt;&lt;/p&gt;" style="text;strokeColor=none;fillColor=none;html=1;fontSize=16;fontStyle=0;verticalAlign=middle;align=left;fontFamily=JetBrains Mono;fontSource=https%3A%2F%2Ffonts.googleapis.com%2Fcss%3Ffamily%3DJetBrains%2BMono;" vertex="1" parent="1">
          <mxGeometry x="-479" y="-36" width="98" height="30" as="geometry" />
        </mxCell>
        <mxCell id="MxNdQzAcVEnt0wkq7xaE-1" value="经过代理的连接" style="text;strokeColor=none;fillColor=none;html=1;fontSize=16;fontStyle=0;verticalAlign=middle;align=left;fontFamily=JetBrains Mono;fontSource=https%3A%2F%2Ffonts.googleapis.com%2Fcss%3Ffamily%3DJetBrains%2BMono;" vertex="1" parent="1">
          <mxGeometry x="-330" y="-44" width="98" height="30" as="geometry" />
        </mxCell>
        <mxCell id="MxNdQzAcVEnt0wkq7xaE-2" value="&lt;div&gt;V2Ray Inbound&lt;/div&gt;&lt;div&gt;&lt;font style=&quot;font-size: 12px;&quot; color=&quot;#949494&quot;&gt;将外部连接接入V2Ray&lt;/font&gt;&lt;br&gt;&lt;/div&gt;" style="text;strokeColor=none;fillColor=none;html=1;fontSize=16;fontStyle=0;verticalAlign=middle;align=left;fontFamily=JetBrains Mono;fontSource=https%3A%2F%2Ffonts.googleapis.com%2Fcss%3Ffamily%3DJetBrains%2BMono;" vertex="1" parent="1">
          <mxGeometry x="-479" y="59.999999999999986" width="98" height="30" as="geometry" />
        </mxCell>
        <mxCell id="MxNdQzAcVEnt0wkq7xaE-3" value="&lt;div&gt;V2Ray Outbound&lt;/div&gt;&lt;div style=&quot;font-size: 12px;&quot;&gt;&lt;font style=&quot;font-size: 12px;&quot; color=&quot;#949494&quot;&gt;将V2Ray内部流量发往外部&lt;/font&gt;&lt;/div&gt;" style="text;strokeColor=none;fillColor=none;html=1;fontSize=16;fontStyle=0;verticalAlign=middle;align=left;fontFamily=JetBrains Mono;fontSource=https%3A%2F%2Ffonts.googleapis.com%2Fcss%3Ffamily%3DJetBrains%2BMono;" vertex="1" parent="1">
          <mxGeometry x="-329" y="57.999999999999986" width="98" height="30" as="geometry" />
        </mxCell>
        <mxCell id="MxNdQzAcVEnt0wkq7xaE-4" value="V2Ray 实例" style="text;strokeColor=none;fillColor=none;html=1;fontSize=16;fontStyle=0;verticalAlign=middle;align=left;fontFamily=JetBrains Mono;fontSource=https%3A%2F%2Ffonts.googleapis.com%2Fcss%3Ffamily%3DJetBrains%2BMono;" vertex="1" parent="1">
          <mxGeometry x="-479" y="195" width="98" height="30" as="geometry" />
        </mxCell>
        <mxCell id="MxNdQzAcVEnt0wkq7xaE-5" value="外部客户端/服务器" style="text;strokeColor=none;fillColor=none;html=1;fontSize=16;fontStyle=0;verticalAlign=middle;align=left;fontFamily=JetBrains Mono;fontSource=https%3A%2F%2Ffonts.googleapis.com%2Fcss%3Ffamily%3DJetBrains%2BMono;" vertex="1" parent="1">
          <mxGeometry x="-328" y="193" width="98" height="30" as="geometry" />
        </mxCell>
        <mxCell id="w8hfhVoCcNEX6yFM0_vX-1" value="" style="rounded=0;whiteSpace=wrap;html=1;fontFamily=JetBrains Mono;fontSource=https%3A%2F%2Ffonts.googleapis.com%2Fcss%3Ffamily%3DJetBrains%2BMono;" vertex="1" parent="1">
          <mxGeometry x="-385" y="280" width="90" height="70" as="geometry" />
        </mxCell>
        <mxCell id="w8hfhVoCcNEX6yFM0_vX-2" value="&lt;font style=&quot;font-size: 12px;&quot;&gt;示例V2Ray服务器&lt;br&gt;&lt;/font&gt;" style="text;strokeColor=none;fillColor=none;html=1;fontSize=16;fontStyle=0;verticalAlign=middle;align=center;fontFamily=JetBrains Mono;fontSource=https%3A%2F%2Ffonts.googleapis.com%2Fcss%3Ffamily%3DJetBrains%2BMono;" vertex="1" parent="1">
          <mxGeometry x="-389" y="256" width="98" height="30" as="geometry" />
        </mxCell>
        <mxCell id="sjZLa66RfU1RfS4yLoRG-1" value="&lt;div style=&quot;font-size: 10px;&quot;&gt;SOCKS&lt;/div&gt;&lt;i&gt;TCP&lt;/i&gt;" style="shape=or;whiteSpace=wrap;html=1;fillColor=#f8cecc;strokeColor=#b85450;fontFamily=JetBrains Mono;fontSource=https%3A%2F%2Ffonts.googleapis.com%2Fcss%3Ffamily%3DJetBrains%2BMono;fontSize=10;" vertex="1" parent="1">
          <mxGeometry x="-410" y="293.18" width="49" height="43.64" as="geometry" />
        </mxCell>
        <mxCell id="sjZLa66RfU1RfS4yLoRG-2" value="" style="group;fontFamily=JetBrains Mono;fontSource=https%3A%2F%2Ffonts.googleapis.com%2Fcss%3Ffamily%3DJetBrains%2BMono;" vertex="1" connectable="0" parent="1">
          <mxGeometry x="-500" y="310" width="90" height="20" as="geometry" />
        </mxCell>
        <mxCell id="sjZLa66RfU1RfS4yLoRG-3" value="TCP" style="html=1;shadow=0;dashed=0;align=center;verticalAlign=middle;shape=mxgraph.arrows2.arrow;dy=0;dx=10;notch=0;fillColor=#dae8fc;strokeColor=#6c8ebf;fontFamily=JetBrains Mono;fontSource=https%3A%2F%2Ffonts.googleapis.com%2Fcss%3Ffamily%3DJetBrains%2BMono;" vertex="1" parent="sjZLa66RfU1RfS4yLoRG-2">
          <mxGeometry y="-10" width="90" height="15.45" as="geometry" />
        </mxCell>
        <mxCell id="sjZLa66RfU1RfS4yLoRG-4" value="&lt;font style=&quot;font-size: 10px;&quot;&gt;SOCKS+&lt;i&gt;TCP&lt;/i&gt;&lt;br&gt;&lt;/font&gt;" style="html=1;shadow=0;dashed=0;align=center;verticalAlign=middle;shape=mxgraph.arrows2.arrow;dy=0;dx=10;notch=0;fillColor=#fff2cc;strokeColor=#d6b656;fontFamily=JetBrains Mono;fontSource=https%3A%2F%2Ffonts.googleapis.com%2Fcss%3Ffamily%3DJetBrains%2BMono;" vertex="1" parent="sjZLa66RfU1RfS4yLoRG-2">
          <mxGeometry y="5.45" width="90" height="14.55" as="geometry" />
        </mxCell>
        <mxCell id="sjZLa66RfU1RfS4yLoRG-5" value="TCP" style="html=1;shadow=0;dashed=0;align=center;verticalAlign=middle;shape=mxgraph.arrows2.arrow;dy=0;dx=10;notch=0;fillColor=#dae8fc;strokeColor=#6c8ebf;fontFamily=JetBrains Mono;fontSource=https%3A%2F%2Ffonts.googleapis.com%2Fcss%3Ffamily%3DJetBrains%2BMono;" vertex="1" parent="1">
          <mxGeometry x="-358" y="305" width="43" height="20" as="geometry" />
        </mxCell>
        <mxCell id="9r4dRgKhwODtP6IZI2q_-1" value="&lt;div style=&quot;font-size: 10px;&quot;&gt;VMESS&lt;/div&gt;&lt;i&gt;QUIC&lt;/i&gt;" style="shape=or;whiteSpace=wrap;html=1;fillColor=#d5e8d4;strokeColor=#82b366;fontFamily=JetBrains Mono;fontSource=https%3A%2F%2Ffonts.googleapis.com%2Fcss%3Ffamily%3DJetBrains%2BMono;fontSize=10;flipH=0;" vertex="1" parent="1">
          <mxGeometry x="-313" y="293.18" width="48" height="43.64" as="geometry" />
        </mxCell>
        <mxCell id="P2veyeH3kjwsgPFa4diE-1" value="" style="group;fontFamily=JetBrains Mono;fontSource=https%3A%2F%2Ffonts.googleapis.com%2Fcss%3Ffamily%3DJetBrains%2BMono;" vertex="1" connectable="0" parent="1">
          <mxGeometry x="-262" y="310" width="90" height="20" as="geometry" />
        </mxCell>
        <mxCell id="P2veyeH3kjwsgPFa4diE-2" value="TCP" style="html=1;shadow=0;dashed=0;align=center;verticalAlign=middle;shape=mxgraph.arrows2.arrow;dy=0;dx=10;notch=0;fillColor=#dae8fc;strokeColor=#6c8ebf;fontFamily=JetBrains Mono;fontSource=https%3A%2F%2Ffonts.googleapis.com%2Fcss%3Ffamily%3DJetBrains%2BMono;" vertex="1" parent="P2veyeH3kjwsgPFa4diE-1">
          <mxGeometry y="-10" width="90" height="15.45" as="geometry" />
        </mxCell>
        <mxCell id="P2veyeH3kjwsgPFa4diE-3" value="&lt;font style=&quot;font-size: 10px;&quot;&gt;VMESS+&lt;i&gt;QUIC&lt;/i&gt;&lt;br&gt;&lt;/font&gt;" style="html=1;shadow=0;dashed=0;align=center;verticalAlign=middle;shape=mxgraph.arrows2.arrow;dy=0;dx=10;notch=0;fillColor=#fff2cc;strokeColor=#d6b656;fontFamily=JetBrains Mono;fontSource=https%3A%2F%2Ffonts.googleapis.com%2Fcss%3Ffamily%3DJetBrains%2BMono;" vertex="1" parent="P2veyeH3kjwsgPFa4diE-1">
          <mxGeometry y="5.45" width="90" height="14.55" as="geometry" />
        </mxCell>
      </root>
    </mxGraphModel>
  </diagram>
  <diagram id="DFa13ro1AjPYyjHEfTWc" name="freedom与dokodemo-door">
    <mxGraphModel dx="1630" dy="573" grid="1" gridSize="10" guides="1" tooltips="1" connect="1" arrows="1" fold="1" page="1" pageScale="1" pageWidth="827" pageHeight="1169" math="0" shadow="0">
      <root>
        <mxCell id="0" />
        <mxCell id="1" parent="0" />
        <mxCell id="RgY1SdrORI9S9d0nVSXh-1" value="" style="rounded=0;whiteSpace=wrap;html=1;fontFamily=JetBrains Mono;fontSource=https%3A%2F%2Ffonts.googleapis.com%2Fcss%3Ffamily%3DJetBrains%2BMono;" vertex="1" parent="1">
          <mxGeometry x="-464" y="260" width="90" height="70" as="geometry" />
        </mxCell>
        <mxCell id="hvBE3PIqUk8m6vGcTWOG-1" value="&lt;div style=&quot;font-size: 10px;&quot;&gt;SOCKS&lt;/div&gt;&lt;i&gt;TCP&lt;/i&gt;" style="shape=or;whiteSpace=wrap;html=1;fillColor=#f8cecc;strokeColor=#b85450;fontFamily=JetBrains Mono;fontSource=https%3A%2F%2Ffonts.googleapis.com%2Fcss%3Ffamily%3DJetBrains%2BMono;fontSize=10;" vertex="1" parent="1">
          <mxGeometry x="-500" y="273.18" width="69" height="43.64" as="geometry" />
        </mxCell>
        <mxCell id="hvBE3PIqUk8m6vGcTWOG-3" value="" style="rounded=0;whiteSpace=wrap;html=1;fontFamily=JetBrains Mono;fontSource=https%3A%2F%2Ffonts.googleapis.com%2Fcss%3Ffamily%3DJetBrains%2BMono;" vertex="1" parent="1">
          <mxGeometry x="-464" y="340" width="90" height="70" as="geometry" />
        </mxCell>
        <mxCell id="hvBE3PIqUk8m6vGcTWOG-4" value="&lt;div style=&quot;font-size: 10px;&quot;&gt;SOCKS&lt;/div&gt;&lt;i&gt;TCP&lt;/i&gt;" style="shape=or;whiteSpace=wrap;html=1;fillColor=#d5e8d4;strokeColor=#82b366;fontFamily=JetBrains Mono;fontSource=https%3A%2F%2Ffonts.googleapis.com%2Fcss%3Ffamily%3DJetBrains%2BMono;fontSize=10;flipH=1;" vertex="1" parent="1">
          <mxGeometry x="-500" y="353.18" width="69" height="43.64" as="geometry" />
        </mxCell>
        <mxCell id="hvBE3PIqUk8m6vGcTWOG-6" value="" style="rounded=0;whiteSpace=wrap;html=1;fontFamily=JetBrains Mono;fontSource=https%3A%2F%2Ffonts.googleapis.com%2Fcss%3Ffamily%3DJetBrains%2BMono;" vertex="1" parent="1">
          <mxGeometry x="-464" y="500" width="90" height="70" as="geometry" />
        </mxCell>
        <mxCell id="hvBE3PIqUk8m6vGcTWOG-7" value="&lt;div style=&quot;font-size: 10px;&quot;&gt;dokodemo&lt;/div&gt;&lt;div style=&quot;font-size: 10px;&quot;&gt;door&lt;br&gt;&lt;/div&gt;" style="shape=or;whiteSpace=wrap;html=1;fillColor=#f8cecc;strokeColor=#b85450;fontFamily=JetBrains Mono;fontSource=https%3A%2F%2Ffonts.googleapis.com%2Fcss%3Ffamily%3DJetBrains%2BMono;fontSize=10;" vertex="1" parent="1">
          <mxGeometry x="-500" y="513.1800000000001" width="69" height="43.64" as="geometry" />
        </mxCell>
        <mxCell id="hvBE3PIqUk8m6vGcTWOG-8" value="" style="rounded=0;whiteSpace=wrap;html=1;fontFamily=JetBrains Mono;fontSource=https%3A%2F%2Ffonts.googleapis.com%2Fcss%3Ffamily%3DJetBrains%2BMono;" vertex="1" parent="1">
          <mxGeometry x="-464" y="420" width="90" height="70" as="geometry" />
        </mxCell>
        <mxCell id="hvBE3PIqUk8m6vGcTWOG-10" value="freedom" style="shape=or;whiteSpace=wrap;html=1;fillColor=#d5e8d4;strokeColor=#82b366;fontFamily=JetBrains Mono;fontSource=https%3A%2F%2Ffonts.googleapis.com%2Fcss%3Ffamily%3DJetBrains%2BMono;fontSize=10;flipH=1;" vertex="1" parent="1">
          <mxGeometry x="-500" y="433.18" width="69" height="43.64" as="geometry" />
        </mxCell>
        <mxCell id="S6eYevt60ShdOg9nqXxd-1" value="" style="group;fontFamily=JetBrains Mono;fontSource=https%3A%2F%2Ffonts.googleapis.com%2Fcss%3Ffamily%3DJetBrains%2BMono;" vertex="1" connectable="0" parent="1">
          <mxGeometry x="-590" y="290" width="90" height="20" as="geometry" />
        </mxCell>
        <mxCell id="S6eYevt60ShdOg9nqXxd-2" value="TCP" style="html=1;shadow=0;dashed=0;align=center;verticalAlign=middle;shape=mxgraph.arrows2.arrow;dy=0;dx=10;notch=0;fillColor=#dae8fc;strokeColor=#6c8ebf;fontFamily=JetBrains Mono;fontSource=https%3A%2F%2Ffonts.googleapis.com%2Fcss%3Ffamily%3DJetBrains%2BMono;" vertex="1" parent="S6eYevt60ShdOg9nqXxd-1">
          <mxGeometry y="-10" width="90" height="15.45" as="geometry" />
        </mxCell>
        <mxCell id="S6eYevt60ShdOg9nqXxd-3" value="&lt;font style=&quot;font-size: 10px;&quot;&gt;SOCKS+&lt;i&gt;TCP&lt;/i&gt;&lt;br&gt;&lt;/font&gt;" style="html=1;shadow=0;dashed=0;align=center;verticalAlign=middle;shape=mxgraph.arrows2.arrow;dy=0;dx=10;notch=0;fillColor=#fff2cc;strokeColor=#d6b656;fontFamily=JetBrains Mono;fontSource=https%3A%2F%2Ffonts.googleapis.com%2Fcss%3Ffamily%3DJetBrains%2BMono;" vertex="1" parent="S6eYevt60ShdOg9nqXxd-1">
          <mxGeometry y="5.45" width="90" height="14.55" as="geometry" />
        </mxCell>
        <mxCell id="S6eYevt60ShdOg9nqXxd-4" value="" style="group;fontFamily=JetBrains Mono;fontSource=https%3A%2F%2Ffonts.googleapis.com%2Fcss%3Ffamily%3DJetBrains%2BMono;flipH=1;" vertex="1" connectable="0" parent="1">
          <mxGeometry x="-592" y="369" width="90" height="20" as="geometry" />
        </mxCell>
        <mxCell id="S6eYevt60ShdOg9nqXxd-5" value="TCP" style="html=1;shadow=0;dashed=0;align=center;verticalAlign=middle;shape=mxgraph.arrows2.arrow;dy=0;dx=10;notch=0;fillColor=#dae8fc;strokeColor=#6c8ebf;fontFamily=JetBrains Mono;fontSource=https%3A%2F%2Ffonts.googleapis.com%2Fcss%3Ffamily%3DJetBrains%2BMono;flipH=1;" vertex="1" parent="S6eYevt60ShdOg9nqXxd-4">
          <mxGeometry y="-10" width="90" height="15.45" as="geometry" />
        </mxCell>
        <mxCell id="S6eYevt60ShdOg9nqXxd-6" value="&lt;font style=&quot;font-size: 10px;&quot;&gt;SOCKS+&lt;i&gt;TCP&lt;/i&gt;&lt;br&gt;&lt;/font&gt;" style="html=1;shadow=0;dashed=0;align=center;verticalAlign=middle;shape=mxgraph.arrows2.arrow;dy=0;dx=10;notch=0;fillColor=#fff2cc;strokeColor=#d6b656;fontFamily=JetBrains Mono;fontSource=https%3A%2F%2Ffonts.googleapis.com%2Fcss%3Ffamily%3DJetBrains%2BMono;flipH=1;" vertex="1" parent="S6eYevt60ShdOg9nqXxd-4">
          <mxGeometry y="5.45" width="90" height="14.55" as="geometry" />
        </mxCell>
        <mxCell id="HJSUjO4BT2Obr7LfX1TW-1" value="TCP" style="html=1;shadow=0;dashed=0;align=center;verticalAlign=middle;shape=mxgraph.arrows2.arrow;dy=0;dx=10;notch=0;fillColor=#dae8fc;strokeColor=#6c8ebf;fontFamily=JetBrains Mono;fontSource=https%3A%2F%2Ffonts.googleapis.com%2Fcss%3Ffamily%3DJetBrains%2BMono;" vertex="1" parent="1">
          <mxGeometry x="-428" y="285" width="48" height="20" as="geometry" />
        </mxCell>
        <mxCell id="HJSUjO4BT2Obr7LfX1TW-2" value="TCP" style="html=1;shadow=0;dashed=0;align=center;verticalAlign=middle;shape=mxgraph.arrows2.arrow;dy=0;dx=10;notch=0;fillColor=#dae8fc;strokeColor=#6c8ebf;fontFamily=JetBrains Mono;fontSource=https%3A%2F%2Ffonts.googleapis.com%2Fcss%3Ffamily%3DJetBrains%2BMono;flipH=1;" vertex="1" parent="1">
          <mxGeometry x="-428" y="365" width="48" height="20" as="geometry" />
        </mxCell>
        <mxCell id="HJSUjO4BT2Obr7LfX1TW-4" value="TCP" style="html=1;shadow=0;dashed=0;align=center;verticalAlign=middle;shape=mxgraph.arrows2.arrow;dy=0;dx=10;notch=0;fillColor=#dae8fc;strokeColor=#6c8ebf;fontFamily=JetBrains Mono;fontSource=https%3A%2F%2Ffonts.googleapis.com%2Fcss%3Ffamily%3DJetBrains%2BMono;flipH=1;" vertex="1" parent="1">
          <mxGeometry x="-428" y="445" width="48" height="20" as="geometry" />
        </mxCell>
        <mxCell id="HJSUjO4BT2Obr7LfX1TW-5" value="TCP" style="html=1;shadow=0;dashed=0;align=center;verticalAlign=middle;shape=mxgraph.arrows2.arrow;dy=0;dx=10;notch=0;fillColor=#dae8fc;strokeColor=#6c8ebf;fontFamily=JetBrains Mono;fontSource=https%3A%2F%2Ffonts.googleapis.com%2Fcss%3Ffamily%3DJetBrains%2BMono;flipH=1;" vertex="1" parent="1">
          <mxGeometry x="-590" y="445" width="88" height="20" as="geometry" />
        </mxCell>
        <mxCell id="HJSUjO4BT2Obr7LfX1TW-7" value="TCP" style="html=1;shadow=0;dashed=0;align=center;verticalAlign=middle;shape=mxgraph.arrows2.arrow;dy=0;dx=10;notch=0;fillColor=#dae8fc;strokeColor=#6c8ebf;fontFamily=JetBrains Mono;fontSource=https%3A%2F%2Ffonts.googleapis.com%2Fcss%3Ffamily%3DJetBrains%2BMono;" vertex="1" parent="1">
          <mxGeometry x="-428" y="525" width="48" height="20" as="geometry" />
        </mxCell>
        <mxCell id="HJSUjO4BT2Obr7LfX1TW-9" value="TCP" style="html=1;shadow=0;dashed=0;align=center;verticalAlign=middle;shape=mxgraph.arrows2.arrow;dy=0;dx=10;notch=0;fillColor=#dae8fc;strokeColor=#6c8ebf;fontFamily=JetBrains Mono;fontSource=https%3A%2F%2Ffonts.googleapis.com%2Fcss%3Ffamily%3DJetBrains%2BMono;" vertex="1" parent="1">
          <mxGeometry x="-590" y="525" width="90" height="20" as="geometry" />
        </mxCell>
        <mxCell id="ySHYZ-0ZvfYXWJ1j6FS9-1" value="&lt;div style=&quot;font-size: 15px;&quot;&gt;&lt;font style=&quot;font-size: 15px;&quot;&gt;普通Inbound&lt;/font&gt;&lt;/div&gt;&lt;div style=&quot;font-size: 15px;&quot;&gt;&lt;font style=&quot;font-size: 15px;&quot;&gt;&lt;font style=&quot;font-size: 13px;&quot; color=&quot;#808080&quot;&gt;以TCP上的SOCKS协议为例&lt;/font&gt;&lt;br&gt;&lt;/font&gt;&lt;/div&gt;" style="text;whiteSpace=wrap;html=1;fontSize=10;fontFamily=JetBrains Mono;" vertex="1" parent="1">
          <mxGeometry x="-360" y="273.18" width="190" height="30" as="geometry" />
        </mxCell>
        <mxCell id="ySHYZ-0ZvfYXWJ1j6FS9-2" value="&lt;div style=&quot;font-size: 15px;&quot;&gt;&lt;font style=&quot;font-size: 15px;&quot;&gt;普通Outbound&lt;/font&gt;&lt;/div&gt;&lt;div style=&quot;font-size: 15px;&quot;&gt;&lt;font style=&quot;font-size: 15px;&quot;&gt;&lt;font style=&quot;font-size: 13px;&quot; color=&quot;#808080&quot;&gt;以TCP上的SOCKS协议为例&lt;/font&gt;&lt;br&gt;&lt;/font&gt;&lt;/div&gt;" style="text;whiteSpace=wrap;html=1;fontSize=10;fontFamily=JetBrains Mono;" vertex="1" parent="1">
          <mxGeometry x="-360" y="355" width="190" height="30" as="geometry" />
        </mxCell>
        <mxCell id="ySHYZ-0ZvfYXWJ1j6FS9-3" value="&lt;font style=&quot;font-size: 15px;&quot;&gt;freedom&lt;/font&gt;" style="text;whiteSpace=wrap;html=1;fontSize=10;fontFamily=JetBrains Mono;" vertex="1" parent="1">
          <mxGeometry x="-360" y="440" width="190" height="30" as="geometry" />
        </mxCell>
        <mxCell id="ySHYZ-0ZvfYXWJ1j6FS9-4" value="&lt;font style=&quot;font-size: 15px;&quot;&gt;dokodemo-door&lt;/font&gt;" style="text;whiteSpace=wrap;html=1;fontSize=10;fontFamily=JetBrains Mono;" vertex="1" parent="1">
          <mxGeometry x="-360" y="513.1800000000001" width="190" height="30" as="geometry" />
        </mxCell>
      </root>
    </mxGraphModel>
  </diagram>
  <diagram id="C4GlOoCxmBKQTsUnS-NL" name="反向代理图例">
    <mxGraphModel dx="1630" dy="573" grid="1" gridSize="10" guides="1" tooltips="1" connect="1" arrows="1" fold="1" page="1" pageScale="1" pageWidth="827" pageHeight="1169" math="0" shadow="0">
      <root>
        <mxCell id="0" />
        <mxCell id="1" parent="0" />
        <mxCell id="kIGqS3nICt2DYd9XcbXg-1" value="&lt;div&gt;&lt;i&gt;域名&lt;br&gt;&lt;/i&gt;&lt;/div&gt;" style="html=1;whiteSpace=wrap;aspect=fixed;shape=isoRectangle;fontFamily=JetBrains Mono;fontSource=https%3A%2F%2Ffonts.googleapis.com%2Fcss%3Ffamily%3DJetBrains%2BMono;fontSize=10;fillColor=#b0e3e6;strokeColor=#0e8088;" vertex="1" parent="1">
          <mxGeometry x="-460" y="510" width="90" height="54" as="geometry" />
        </mxCell>
        <mxCell id="kIGqS3nICt2DYd9XcbXg-2" value="&lt;div&gt;V2Ray Bridge&lt;/div&gt;&lt;div&gt;在Outbound之间转发流量&lt;br&gt;&lt;/div&gt;" style="text;strokeColor=none;fillColor=none;html=1;fontSize=16;fontStyle=0;verticalAlign=middle;align=left;fontFamily=JetBrains Mono;fontSource=https%3A%2F%2Ffonts.googleapis.com%2Fcss%3Ffamily%3DJetBrains%2BMono;" vertex="1" parent="1">
          <mxGeometry x="-360" y="517" width="98" height="30" as="geometry" />
        </mxCell>
        <mxCell id="kIGqS3nICt2DYd9XcbXg-3" value="&lt;div&gt;V2Ray Portal&lt;/div&gt;&lt;div&gt;在Inbound之间转发流量&lt;br&gt;&lt;/div&gt;" style="text;strokeColor=none;fillColor=none;html=1;fontSize=16;fontStyle=0;verticalAlign=middle;align=left;fontFamily=JetBrains Mono;fontSource=https%3A%2F%2Ffonts.googleapis.com%2Fcss%3Ffamily%3DJetBrains%2BMono;" vertex="1" parent="1">
          <mxGeometry x="-360" y="597" width="98" height="30" as="geometry" />
        </mxCell>
        <mxCell id="kIGqS3nICt2DYd9XcbXg-4" value="&lt;div&gt;&lt;i&gt;域名&lt;br&gt;&lt;/i&gt;&lt;/div&gt;" style="html=1;whiteSpace=wrap;aspect=fixed;shape=isoRectangle;fontFamily=JetBrains Mono;fontSource=https%3A%2F%2Ffonts.googleapis.com%2Fcss%3Ffamily%3DJetBrains%2BMono;fontSize=10;fillColor=#fad9d5;strokeColor=#ae4132;" vertex="1" parent="1">
          <mxGeometry x="-460" y="580" width="90" height="54" as="geometry" />
        </mxCell>
        <mxCell id="kIGqS3nICt2DYd9XcbXg-5" value="" style="group;fontFamily=JetBrains Mono;fontSource=https%3A%2F%2Ffonts.googleapis.com%2Fcss%3Ffamily%3DJetBrains%2BMono;flipH=0;" vertex="1" connectable="0" parent="1">
          <mxGeometry x="-490" y="660" width="119" height="20" as="geometry" />
        </mxCell>
        <mxCell id="kIGqS3nICt2DYd9XcbXg-6" value="TCP" style="html=1;shadow=0;dashed=0;align=center;verticalAlign=middle;shape=mxgraph.arrows2.arrow;dy=0;dx=10;notch=0;fillColor=#dae8fc;strokeColor=#6c8ebf;fontFamily=JetBrains Mono;fontSource=https%3A%2F%2Ffonts.googleapis.com%2Fcss%3Ffamily%3DJetBrains%2BMono;flipH=1;" vertex="1" parent="kIGqS3nICt2DYd9XcbXg-5">
          <mxGeometry y="-10" width="119" height="15.45" as="geometry" />
        </mxCell>
        <mxCell id="kIGqS3nICt2DYd9XcbXg-7" value="域名&lt;font style=&quot;font-size: 10px;&quot;&gt;&lt;br&gt;&lt;/font&gt;" style="html=1;shadow=0;dashed=0;align=center;verticalAlign=middle;shape=mxgraph.arrows2.arrow;dy=0;dx=10;notch=0;fillColor=#b0e3e6;strokeColor=#0e8088;fontFamily=JetBrains Mono;fontSource=https%3A%2F%2Ffonts.googleapis.com%2Fcss%3Ffamily%3DJetBrains%2BMono;flipH=0;" vertex="1" parent="kIGqS3nICt2DYd9XcbXg-5">
          <mxGeometry y="5.45" width="119" height="14.55" as="geometry" />
        </mxCell>
        <mxCell id="kIGqS3nICt2DYd9XcbXg-8" value="反向代理连接" style="text;strokeColor=none;fillColor=none;html=1;fontSize=16;fontStyle=0;verticalAlign=middle;align=left;fontFamily=JetBrains Mono;fontSource=https%3A%2F%2Ffonts.googleapis.com%2Fcss%3Ffamily%3DJetBrains%2BMono;" vertex="1" parent="1">
          <mxGeometry x="-360" y="650" width="98" height="30" as="geometry" />
        </mxCell>
      </root>
    </mxGraphModel>
  </diagram>
  <diagram id="-a_eOgk3tNtn--gN5NtH" name="简单模型">
    <mxGraphModel dx="1496" dy="478" grid="1" gridSize="10" guides="1" tooltips="1" connect="1" arrows="1" fold="1" page="1" pageScale="1" pageWidth="827" pageHeight="1169" math="0" shadow="0">
      <root>
        <mxCell id="0" />
        <mxCell id="1" parent="0" />
        <mxCell id="kUxxyB-mZXL6-8QbKrn9-2" value="" style="rounded=0;whiteSpace=wrap;html=1;fontFamily=JetBrains Mono;fontSource=https%3A%2F%2Ffonts.googleapis.com%2Fcss%3Ffamily%3DJetBrains%2BMono;" vertex="1" parent="1">
          <mxGeometry x="-253" y="290" width="90" height="120" as="geometry" />
        </mxCell>
        <mxCell id="kUxxyB-mZXL6-8QbKrn9-3" value="&lt;p style=&quot;line-height: 0.8;&quot;&gt;&lt;/p&gt;&lt;div&gt;&lt;font style=&quot;font-size: 10px;&quot;&gt;SOCKS&lt;/font&gt;&lt;/div&gt;&lt;font size=&quot;1&quot;&gt;&lt;i&gt;TCP&lt;/i&gt;&lt;/font&gt;&lt;br&gt;&lt;p&gt;&lt;/p&gt;" style="shape=or;whiteSpace=wrap;html=1;fillColor=#f8cecc;strokeColor=#b85450;fontFamily=JetBrains Mono;fontSource=https%3A%2F%2Ffonts.googleapis.com%2Fcss%3Ffamily%3DJetBrains%2BMono;" vertex="1" parent="1">
          <mxGeometry x="-276.64" y="328.18" width="43.64" height="43.64" as="geometry" />
        </mxCell>
        <mxCell id="kUxxyB-mZXL6-8QbKrn9-4" value="&lt;div&gt;vmess&lt;/div&gt;&lt;div&gt;&lt;i&gt;TCP&lt;/i&gt;&lt;br&gt;&lt;/div&gt;" style="shape=or;whiteSpace=wrap;html=1;fillColor=#d5e8d4;strokeColor=#82b366;fontFamily=JetBrains Mono;fontSource=https%3A%2F%2Ffonts.googleapis.com%2Fcss%3Ffamily%3DJetBrains%2BMono;" vertex="1" parent="1">
          <mxGeometry x="-178.45" y="328.18" width="45.45" height="43.64" as="geometry" />
        </mxCell>
        <mxCell id="kUxxyB-mZXL6-8QbKrn9-8" value="" style="group;fontFamily=JetBrains Mono;fontSource=https%3A%2F%2Ffonts.googleapis.com%2Fcss%3Ffamily%3DJetBrains%2BMono;" vertex="1" connectable="0" parent="1">
          <mxGeometry x="-132.9971623931624" y="344.99545454545455" width="74.18160683760684" height="20" as="geometry" />
        </mxCell>
        <mxCell id="kUxxyB-mZXL6-8QbKrn9-6" value="TCP" style="html=1;shadow=0;dashed=0;align=center;verticalAlign=middle;shape=mxgraph.arrows2.arrow;dy=0;dx=10;notch=0;fillColor=#dae8fc;strokeColor=#6c8ebf;fontFamily=JetBrains Mono;fontSource=https%3A%2F%2Ffonts.googleapis.com%2Fcss%3Ffamily%3DJetBrains%2BMono;" vertex="1" parent="kUxxyB-mZXL6-8QbKrn9-8">
          <mxGeometry y="-10" width="74.18" height="15.45" as="geometry" />
        </mxCell>
        <mxCell id="kUxxyB-mZXL6-8QbKrn9-7" value="&lt;font style=&quot;font-size: 10px;&quot; data-font-src=&quot;https://fonts.googleapis.com/css?family=JetBrains+Mono&quot;&gt;vmess&lt;/font&gt;&lt;font style=&quot;font-size: 10px;&quot;&gt;+&lt;i&gt;TCP&lt;/i&gt;&lt;/font&gt;" style="html=1;shadow=0;dashed=0;align=center;verticalAlign=middle;shape=mxgraph.arrows2.arrow;dy=0;dx=10;notch=0;fillColor=#fff2cc;strokeColor=#d6b656;fontFamily=JetBrains Mono;fontSource=https%3A%2F%2Ffonts.googleapis.com%2Fcss%3Ffamily%3DJetBrains%2BMono;" vertex="1" parent="kUxxyB-mZXL6-8QbKrn9-8">
          <mxGeometry y="5.45" width="74.18" height="14.55" as="geometry" />
        </mxCell>
        <mxCell id="kUxxyB-mZXL6-8QbKrn9-10" value="TCP" style="html=1;shadow=0;dashed=0;align=center;verticalAlign=middle;shape=mxgraph.arrows2.arrow;dy=0;dx=10;notch=0;fillColor=#dae8fc;strokeColor=#6c8ebf;fontFamily=JetBrains Mono;fontSource=https%3A%2F%2Ffonts.googleapis.com%2Fcss%3Ffamily%3DJetBrains%2BMono;" vertex="1" parent="1">
          <mxGeometry x="92" y="340" width="65.45" height="20" as="geometry" />
        </mxCell>
        <mxCell id="kUxxyB-mZXL6-8QbKrn9-11" value="TCP" style="html=1;shadow=0;dashed=0;align=center;verticalAlign=middle;shape=mxgraph.arrows2.arrow;dy=0;dx=10;notch=0;fillColor=#dae8fc;strokeColor=#6c8ebf;fontFamily=JetBrains Mono;fontSource=https%3A%2F%2Ffonts.googleapis.com%2Fcss%3Ffamily%3DJetBrains%2BMono;" vertex="1" parent="1">
          <mxGeometry x="-233" y="340" width="54.55" height="20" as="geometry" />
        </mxCell>
        <mxCell id="kUxxyB-mZXL6-8QbKrn9-12" value="" style="rounded=0;whiteSpace=wrap;html=1;fontFamily=JetBrains Mono;fontSource=https%3A%2F%2Ffonts.googleapis.com%2Fcss%3Ffamily%3DJetBrains%2BMono;" vertex="1" parent="1">
          <mxGeometry x="-40.72" y="290" width="97.72" height="120" as="geometry" />
        </mxCell>
        <mxCell id="kUxxyB-mZXL6-8QbKrn9-13" value="&lt;div style=&quot;font-size: 10px;&quot;&gt;&lt;font style=&quot;font-size: 10px;&quot;&gt;vmess&lt;/font&gt;&lt;/div&gt;&lt;font style=&quot;font-size: 10px;&quot;&gt;&lt;i&gt;TCP&lt;br&gt;&lt;/i&gt;&lt;/font&gt;" style="shape=or;whiteSpace=wrap;html=1;fillColor=#f8cecc;strokeColor=#b85450;fontFamily=JetBrains Mono;fontSource=https%3A%2F%2Ffonts.googleapis.com%2Fcss%3Ffamily%3DJetBrains%2BMono;" vertex="1" parent="1">
          <mxGeometry x="-58.81999999999999" y="328.18" width="40" height="43.64" as="geometry" />
        </mxCell>
        <mxCell id="kUxxyB-mZXL6-8QbKrn9-14" value="&lt;div style=&quot;font-size: 10px;&quot;&gt;&lt;font style=&quot;font-size: 10px;&quot;&gt;freedom&lt;br&gt;&lt;/font&gt;&lt;/div&gt;" style="shape=or;whiteSpace=wrap;html=1;fillColor=#d5e8d4;strokeColor=#82b366;fontFamily=JetBrains Mono;fontSource=https%3A%2F%2Ffonts.googleapis.com%2Fcss%3Ffamily%3DJetBrains%2BMono;" vertex="1" parent="1">
          <mxGeometry x="39.91" y="328.18" width="50.09" height="43.64" as="geometry" />
        </mxCell>
        <mxCell id="kUxxyB-mZXL6-8QbKrn9-15" value="TCP" style="html=1;shadow=0;dashed=0;align=center;verticalAlign=middle;shape=mxgraph.arrows2.arrow;dy=0;dx=10;notch=0;fillColor=#dae8fc;strokeColor=#6c8ebf;fontFamily=JetBrains Mono;fontSource=https%3A%2F%2Ffonts.googleapis.com%2Fcss%3Ffamily%3DJetBrains%2BMono;" vertex="1" parent="1">
          <mxGeometry x="-18.819999999999993" y="340" width="58.73" height="20" as="geometry" />
        </mxCell>
        <mxCell id="kUxxyB-mZXL6-8QbKrn9-19" value="TCP" style="html=1;shadow=0;dashed=0;align=center;verticalAlign=middle;shape=mxgraph.arrows2.arrow;dy=0;dx=10;notch=0;fillColor=#dae8fc;strokeColor=#6c8ebf;fontFamily=JetBrains Mono;fontSource=https%3A%2F%2Ffonts.googleapis.com%2Fcss%3Ffamily%3DJetBrains%2BMono;" vertex="1" parent="1">
          <mxGeometry x="-350" y="334.55" width="73.36" height="15.45" as="geometry" />
        </mxCell>
        <mxCell id="kUxxyB-mZXL6-8QbKrn9-20" value="&lt;font style=&quot;font-size: 10px;&quot;&gt;SOCKS&lt;font style=&quot;font-size: 10px;&quot;&gt;+&lt;i&gt;TCP&lt;/i&gt;&lt;/font&gt;&lt;/font&gt;" style="html=1;shadow=0;dashed=0;align=center;verticalAlign=middle;shape=mxgraph.arrows2.arrow;dy=0;dx=10;notch=0;fillColor=#fff2cc;strokeColor=#d6b656;fontFamily=JetBrains Mono;fontSource=https%3A%2F%2Ffonts.googleapis.com%2Fcss%3Ffamily%3DJetBrains%2BMono;" vertex="1" parent="1">
          <mxGeometry x="-350" y="350" width="73.36" height="15" as="geometry" />
        </mxCell>
        <mxCell id="kUxxyB-mZXL6-8QbKrn9-24" value="&lt;div&gt;浏览器&lt;/div&gt;&lt;div&gt;(支持&lt;/div&gt;&lt;div&gt;socks代理)&lt;br&gt;&lt;/div&gt;" style="rounded=1;whiteSpace=wrap;html=1;fontFamily=JetBrains Mono;fontSource=https%3A%2F%2Ffonts.googleapis.com%2Fcss%3Ffamily%3DJetBrains%2BMono;" vertex="1" parent="1">
          <mxGeometry x="-430" y="290" width="78.18" height="120" as="geometry" />
        </mxCell>
        <mxCell id="kUxxyB-mZXL6-8QbKrn9-25" value="网页服务器" style="rounded=1;whiteSpace=wrap;html=1;fontFamily=JetBrains Mono;fontSource=https%3A%2F%2Ffonts.googleapis.com%2Fcss%3Ffamily%3DJetBrains%2BMono;" vertex="1" parent="1">
          <mxGeometry x="159.45" y="290" width="78.18" height="120" as="geometry" />
        </mxCell>
        <mxCell id="kUxxyB-mZXL6-8QbKrn9-26" value="&lt;font style=&quot;font-size: 15px;&quot;&gt;V2Ray客户端&lt;/font&gt;" style="text;strokeColor=none;fillColor=none;html=1;fontSize=16;fontStyle=0;verticalAlign=middle;align=center;fontFamily=JetBrains Mono;fontSource=https%3A%2F%2Ffonts.googleapis.com%2Fcss%3Ffamily%3DJetBrains%2BMono;" vertex="1" parent="1">
          <mxGeometry x="-257" y="260" width="98" height="30" as="geometry" />
        </mxCell>
        <mxCell id="kUxxyB-mZXL6-8QbKrn9-27" value="&lt;font style=&quot;font-size: 15px;&quot;&gt;V2Ray服务器&lt;/font&gt;" style="text;strokeColor=none;fillColor=none;html=1;fontSize=16;fontStyle=0;verticalAlign=middle;align=center;fontFamily=JetBrains Mono;fontSource=https%3A%2F%2Ffonts.googleapis.com%2Fcss%3Ffamily%3DJetBrains%2BMono;" vertex="1" parent="1">
          <mxGeometry x="-41" y="260" width="98" height="30" as="geometry" />
        </mxCell>
      </root>
    </mxGraphModel>
  </diagram>
  <diagram id="qUSkxOYkUHjP52pBDUFQ" name="反向代理模型">
    <mxGraphModel dx="1772" dy="674" grid="1" gridSize="10" guides="1" tooltips="1" connect="1" arrows="1" fold="1" page="1" pageScale="1" pageWidth="827" pageHeight="1169" math="0" shadow="0">
      <root>
        <mxCell id="0" />
        <mxCell id="1" parent="0" />
        <mxCell id="ZHhKA3xxa_BlzV9NOmU7-7" value="TCP" style="html=1;shadow=0;dashed=0;align=center;verticalAlign=middle;shape=mxgraph.arrows2.arrow;dy=0;dx=10;notch=0;fillColor=#dae8fc;strokeColor=#6c8ebf;fontFamily=JetBrains Mono;fontSource=https%3A%2F%2Ffonts.googleapis.com%2Fcss%3Ffamily%3DJetBrains%2BMono;flipH=1;" vertex="1" parent="1">
          <mxGeometry x="83.18" y="340" width="65.45" height="20" as="geometry" />
        </mxCell>
        <mxCell id="ZHhKA3xxa_BlzV9NOmU7-9" value="" style="rounded=0;whiteSpace=wrap;html=1;fontFamily=JetBrains Mono;fontSource=https%3A%2F%2Ffonts.googleapis.com%2Fcss%3Ffamily%3DJetBrains%2BMono;" vertex="1" parent="1">
          <mxGeometry x="-80" y="290" width="119.91" height="180" as="geometry" />
        </mxCell>
        <mxCell id="ZHhKA3xxa_BlzV9NOmU7-10" value="&lt;div style=&quot;font-size: 10px;&quot;&gt;dokodemo-&lt;/div&gt;door" style="shape=or;whiteSpace=wrap;html=1;fillColor=#f8cecc;strokeColor=#b85450;fontFamily=JetBrains Mono;fontSource=https%3A%2F%2Ffonts.googleapis.com%2Fcss%3Ffamily%3DJetBrains%2BMono;flipH=1;fontSize=10;" vertex="1" parent="1">
          <mxGeometry x="20" y="328.18" width="61.55" height="43.64" as="geometry" />
        </mxCell>
        <mxCell id="ZHhKA3xxa_BlzV9NOmU7-13" value="TCP" style="html=1;shadow=0;dashed=0;align=center;verticalAlign=middle;shape=mxgraph.arrows2.arrow;dy=0;dx=10;notch=0;fillColor=#dae8fc;strokeColor=#6c8ebf;fontFamily=JetBrains Mono;fontSource=https%3A%2F%2Ffonts.googleapis.com%2Fcss%3Ffamily%3DJetBrains%2BMono;flipH=1;" vertex="1" parent="1">
          <mxGeometry x="-460" y="342.09" width="75.18" height="15.45" as="geometry" />
        </mxCell>
        <mxCell id="ZHhKA3xxa_BlzV9NOmU7-15" value="网页服务器" style="rounded=1;whiteSpace=wrap;html=1;fontFamily=JetBrains Mono;fontSource=https%3A%2F%2Ffonts.googleapis.com%2Fcss%3Ffamily%3DJetBrains%2BMono;" vertex="1" parent="1">
          <mxGeometry x="-538.18" y="291" width="78.18" height="120" as="geometry" />
        </mxCell>
        <mxCell id="ZHhKA3xxa_BlzV9NOmU7-16" value="浏览器" style="rounded=1;whiteSpace=wrap;html=1;fontFamily=JetBrains Mono;fontSource=https%3A%2F%2Ffonts.googleapis.com%2Fcss%3Ffamily%3DJetBrains%2BMono;" vertex="1" parent="1">
          <mxGeometry x="152" y="290" width="78.18" height="120" as="geometry" />
        </mxCell>
        <mxCell id="ZHhKA3xxa_BlzV9NOmU7-18" value="外网服务器" style="text;strokeColor=none;fillColor=none;html=1;fontSize=16;fontStyle=0;verticalAlign=middle;align=center;fontFamily=JetBrains Mono;fontSource=https%3A%2F%2Ffonts.googleapis.com%2Fcss%3Ffamily%3DJetBrains%2BMono;" vertex="1" parent="1">
          <mxGeometry x="-69.05000000000001" y="260" width="98" height="30" as="geometry" />
        </mxCell>
        <mxCell id="kt0yC8OSN1YI0qSnyHlI-1" value="re.ver.se" style="html=1;whiteSpace=wrap;aspect=fixed;shape=isoRectangle;fontFamily=JetBrains Mono;fontSource=https%3A%2F%2Ffonts.googleapis.com%2Fcss%3Ffamily%3DJetBrains%2BMono;fontSize=10;fillColor=#fad9d5;strokeColor=#ae4132;" vertex="1" parent="1">
          <mxGeometry x="-60" y="420" width="80" height="48" as="geometry" />
        </mxCell>
        <mxCell id="kt0yC8OSN1YI0qSnyHlI-3" value="&lt;p style=&quot;line-height: 0.8;&quot;&gt;&lt;/p&gt;&lt;div&gt;&lt;font style=&quot;font-size: 10px;&quot;&gt;vless&lt;/font&gt;&lt;/div&gt;&lt;font size=&quot;1&quot;&gt;&lt;i&gt;QUIC&lt;/i&gt;&lt;/font&gt;&lt;br&gt;&lt;p&gt;&lt;/p&gt;" style="shape=or;whiteSpace=wrap;html=1;fillColor=#f8cecc;strokeColor=#b85450;fontFamily=JetBrains Mono;fontSource=https%3A%2F%2Ffonts.googleapis.com%2Fcss%3Ffamily%3DJetBrains%2BMono;" vertex="1" parent="1">
          <mxGeometry x="-110" y="326" width="60" height="43.64" as="geometry" />
        </mxCell>
        <mxCell id="kt0yC8OSN1YI0qSnyHlI-4" value="TCP" style="html=1;shadow=0;dashed=0;align=center;verticalAlign=middle;shape=mxgraph.arrows2.arrow;dy=0;dx=10;notch=0;fillColor=#dae8fc;strokeColor=#6c8ebf;fontFamily=JetBrains Mono;fontSource=https%3A%2F%2Ffonts.googleapis.com%2Fcss%3Ffamily%3DJetBrains%2BMono;flipH=1;rotation=300;" vertex="1" parent="1">
          <mxGeometry x="-20" y="390" width="65.45" height="15" as="geometry" />
        </mxCell>
        <mxCell id="DFzKY6krtGT2lfIgrM9Z-1" value="TCP" style="html=1;shadow=0;dashed=0;align=center;verticalAlign=middle;shape=mxgraph.arrows2.arrow;dy=0;dx=10;notch=0;fillColor=#dae8fc;strokeColor=#6c8ebf;fontFamily=JetBrains Mono;fontSource=https%3A%2F%2Ffonts.googleapis.com%2Fcss%3Ffamily%3DJetBrains%2BMono;flipH=1;rotation=60;" vertex="1" parent="1">
          <mxGeometry x="-79.13" y="387.5" width="65.45" height="13" as="geometry" />
        </mxCell>
        <mxCell id="t-DRDJ2CueAatbwlD4yn-1" value="&lt;div style=&quot;font-size: 10px;&quot;&gt;&lt;font style=&quot;font-size: 10px;&quot;&gt;re.ver.se&lt;/font&gt;&lt;/div&gt;" style="html=1;shadow=0;dashed=0;align=center;verticalAlign=middle;shape=mxgraph.arrows2.arrow;dy=0;dx=10;notch=0;fillColor=#b0e3e6;strokeColor=#0e8088;fontFamily=JetBrains Mono;fontSource=https%3A%2F%2Ffonts.googleapis.com%2Fcss%3Ffamily%3DJetBrains%2BMono;flipH=0;rotation=60;" vertex="1" parent="1">
          <mxGeometry x="-91" y="394" width="65.45" height="13" as="geometry" />
        </mxCell>
        <mxCell id="V7yOf0kyQEygGPk0awSX-1" value="" style="rounded=0;whiteSpace=wrap;html=1;fontFamily=JetBrains Mono;fontSource=https%3A%2F%2Ffonts.googleapis.com%2Fcss%3Ffamily%3DJetBrains%2BMono;" vertex="1" parent="1">
          <mxGeometry x="-350" y="290" width="119.91" height="180" as="geometry" />
        </mxCell>
        <mxCell id="V7yOf0kyQEygGPk0awSX-3" value="内网服务器" style="text;strokeColor=none;fillColor=none;html=1;fontSize=16;fontStyle=0;verticalAlign=middle;align=center;fontFamily=JetBrains Mono;fontSource=https%3A%2F%2Ffonts.googleapis.com%2Fcss%3Ffamily%3DJetBrains%2BMono;" vertex="1" parent="1">
          <mxGeometry x="-339.05" y="260" width="98" height="30" as="geometry" />
        </mxCell>
        <mxCell id="V7yOf0kyQEygGPk0awSX-4" value="&lt;div style=&quot;font-size: 10px;&quot;&gt;&lt;font style=&quot;font-size: 10px;&quot;&gt;vless&lt;/font&gt;&lt;/div&gt;&lt;div style=&quot;font-size: 10px;&quot;&gt;&lt;font style=&quot;font-size: 10px;&quot;&gt;&lt;i&gt;QUIC&lt;/i&gt;&lt;br&gt;&lt;/font&gt;&lt;/div&gt;" style="shape=or;whiteSpace=wrap;html=1;fillColor=#d5e8d4;strokeColor=#82b366;fontFamily=JetBrains Mono;fontSource=https%3A%2F%2Ffonts.googleapis.com%2Fcss%3Ffamily%3DJetBrains%2BMono;" vertex="1" parent="1">
          <mxGeometry x="-260" y="328" width="55.45" height="43.64" as="geometry" />
        </mxCell>
        <mxCell id="V7yOf0kyQEygGPk0awSX-5" value="freedom" style="shape=or;whiteSpace=wrap;html=1;fillColor=#d5e8d4;strokeColor=#82b366;fontFamily=JetBrains Mono;fontSource=https%3A%2F%2Ffonts.googleapis.com%2Fcss%3Ffamily%3DJetBrains%2BMono;flipH=1;" vertex="1" parent="1">
          <mxGeometry x="-380" y="328" width="55.45" height="43.64" as="geometry" />
        </mxCell>
        <mxCell id="V7yOf0kyQEygGPk0awSX-6" value="re.ver.se" style="html=1;whiteSpace=wrap;aspect=fixed;shape=isoRectangle;fontFamily=JetBrains Mono;fontSource=https%3A%2F%2Ffonts.googleapis.com%2Fcss%3Ffamily%3DJetBrains%2BMono;fontSize=10;fillColor=#b0e3e6;strokeColor=#0e8088;" vertex="1" parent="1">
          <mxGeometry x="-330.05" y="422" width="80" height="48" as="geometry" />
        </mxCell>
        <mxCell id="V7yOf0kyQEygGPk0awSX-7" value="&lt;div style=&quot;font-size: 10px;&quot;&gt;&lt;font style=&quot;font-size: 10px;&quot;&gt;re.ver.se&lt;/font&gt;&lt;/div&gt;" style="html=1;shadow=0;dashed=0;align=center;verticalAlign=middle;shape=mxgraph.arrows2.arrow;dy=0;dx=10;notch=0;fillColor=#b0e3e6;strokeColor=#0e8088;fontFamily=JetBrains Mono;fontSource=https%3A%2F%2Ffonts.googleapis.com%2Fcss%3Ffamily%3DJetBrains%2BMono;flipH=0;rotation=0;" vertex="1" parent="1">
          <mxGeometry x="-200" y="342.75" width="86" height="16.5" as="geometry" />
        </mxCell>
        <mxCell id="V7yOf0kyQEygGPk0awSX-8" value="TCP" style="html=1;shadow=0;dashed=0;align=center;verticalAlign=middle;shape=mxgraph.arrows2.arrow;dy=0;dx=10;notch=0;fillColor=#dae8fc;strokeColor=#6c8ebf;fontFamily=JetBrains Mono;fontSource=https%3A%2F%2Ffonts.googleapis.com%2Fcss%3Ffamily%3DJetBrains%2BMono;flipH=1;rotation=0;" vertex="1" parent="1">
          <mxGeometry x="-200" y="327.75" width="80" height="15" as="geometry" />
        </mxCell>
        <mxCell id="V7yOf0kyQEygGPk0awSX-9" value="&lt;font style=&quot;font-size: 10px;&quot;&gt;vless+&lt;i&gt;QUIC&lt;/i&gt;&lt;/font&gt;" style="html=1;shadow=0;dashed=0;align=center;verticalAlign=middle;shape=mxgraph.arrows2.arrow;dy=0;dx=10;notch=0;fillColor=#fff2cc;strokeColor=#d6b656;fontFamily=JetBrains Mono;fontSource=https%3A%2F%2Ffonts.googleapis.com%2Fcss%3Ffamily%3DJetBrains%2BMono;" vertex="1" parent="1">
          <mxGeometry x="-200" y="360" width="80" height="15" as="geometry" />
        </mxCell>
        <mxCell id="V7yOf0kyQEygGPk0awSX-10" value="TCP" style="html=1;shadow=0;dashed=0;align=center;verticalAlign=middle;shape=mxgraph.arrows2.arrow;dy=0;dx=10;notch=0;fillColor=#dae8fc;strokeColor=#6c8ebf;fontFamily=JetBrains Mono;fontSource=https%3A%2F%2Ffonts.googleapis.com%2Fcss%3Ffamily%3DJetBrains%2BMono;flipH=1;rotation=300;" vertex="1" parent="1">
          <mxGeometry x="-300" y="392" width="62.28" height="13" as="geometry" />
        </mxCell>
        <mxCell id="V7yOf0kyQEygGPk0awSX-11" value="&lt;div style=&quot;font-size: 10px;&quot;&gt;&lt;font style=&quot;font-size: 10px;&quot;&gt;re.ver.se&lt;/font&gt;&lt;/div&gt;" style="html=1;shadow=0;dashed=0;align=center;verticalAlign=middle;shape=mxgraph.arrows2.arrow;dy=0;dx=10;notch=0;fillColor=#b0e3e6;strokeColor=#0e8088;fontFamily=JetBrains Mono;fontSource=https%3A%2F%2Ffonts.googleapis.com%2Fcss%3Ffamily%3DJetBrains%2BMono;flipH=0;rotation=300;" vertex="1" parent="1">
          <mxGeometry x="-288.72" y="396" width="65.45" height="13" as="geometry" />
        </mxCell>
        <mxCell id="V7yOf0kyQEygGPk0awSX-12" value="TCP" style="html=1;shadow=0;dashed=0;align=center;verticalAlign=middle;shape=mxgraph.arrows2.arrow;dy=0;dx=10;notch=0;fillColor=#dae8fc;strokeColor=#6c8ebf;fontFamily=JetBrains Mono;fontSource=https%3A%2F%2Ffonts.googleapis.com%2Fcss%3Ffamily%3DJetBrains%2BMono;flipH=1;rotation=60;" vertex="1" parent="1">
          <mxGeometry x="-350" y="394" width="62.28" height="13" as="geometry" />
        </mxCell>
      </root>
    </mxGraphModel>
  </diagram>
  <diagram id="timX-3-dgM58Ib0x6Udj" name="带有身份验证的反向代理">
    <mxGraphModel dx="1496" dy="478" grid="1" gridSize="10" guides="1" tooltips="1" connect="1" arrows="1" fold="1" page="1" pageScale="1" pageWidth="827" pageHeight="1169" math="0" shadow="0">
      <root>
        <mxCell id="0" />
        <mxCell id="1" parent="0" />
        <mxCell id="gVldJFzOIA-WBot7rfre-1" value="TCP" style="html=1;shadow=0;dashed=0;align=center;verticalAlign=middle;shape=mxgraph.arrows2.arrow;dy=0;dx=10;notch=0;fillColor=#dae8fc;strokeColor=#6c8ebf;fontFamily=JetBrains Mono;fontSource=https%3A%2F%2Ffonts.googleapis.com%2Fcss%3Ffamily%3DJetBrains%2BMono;flipH=1;" vertex="1" parent="1">
          <mxGeometry x="90" y="328.18" width="75.45" height="20" as="geometry" />
        </mxCell>
        <mxCell id="gVldJFzOIA-WBot7rfre-2" value="" style="rounded=0;whiteSpace=wrap;html=1;fontFamily=JetBrains Mono;fontSource=https%3A%2F%2Ffonts.googleapis.com%2Fcss%3Ffamily%3DJetBrains%2BMono;" vertex="1" parent="1">
          <mxGeometry x="-80" y="290" width="119.91" height="180" as="geometry" />
        </mxCell>
        <mxCell id="gVldJFzOIA-WBot7rfre-3" value="&lt;div&gt;vless&lt;/div&gt;&lt;div&gt;&lt;i&gt;QUIC&lt;/i&gt;&lt;br&gt;&lt;/div&gt;" style="shape=or;whiteSpace=wrap;html=1;fillColor=#f8cecc;strokeColor=#b85450;fontFamily=JetBrains Mono;fontSource=https%3A%2F%2Ffonts.googleapis.com%2Fcss%3Ffamily%3DJetBrains%2BMono;flipH=1;fontSize=10;" vertex="1" parent="1">
          <mxGeometry x="20" y="328.18" width="61.55" height="43.64" as="geometry" />
        </mxCell>
        <mxCell id="gVldJFzOIA-WBot7rfre-4" value="TCP" style="html=1;shadow=0;dashed=0;align=center;verticalAlign=middle;shape=mxgraph.arrows2.arrow;dy=0;dx=10;notch=0;fillColor=#dae8fc;strokeColor=#6c8ebf;fontFamily=JetBrains Mono;fontSource=https%3A%2F%2Ffonts.googleapis.com%2Fcss%3Ffamily%3DJetBrains%2BMono;flipH=1;" vertex="1" parent="1">
          <mxGeometry x="-460" y="342.09" width="75.18" height="15.45" as="geometry" />
        </mxCell>
        <mxCell id="gVldJFzOIA-WBot7rfre-5" value="浏览器" style="rounded=1;whiteSpace=wrap;html=1;fontFamily=JetBrains Mono;fontSource=https%3A%2F%2Ffonts.googleapis.com%2Fcss%3Ffamily%3DJetBrains%2BMono;" vertex="1" parent="1">
          <mxGeometry x="408" y="291" width="78.18" height="120" as="geometry" />
        </mxCell>
        <mxCell id="gVldJFzOIA-WBot7rfre-6" value="外网代理服务器" style="text;strokeColor=none;fillColor=none;html=1;fontSize=16;fontStyle=0;verticalAlign=middle;align=center;fontFamily=JetBrains Mono;fontSource=https%3A%2F%2Ffonts.googleapis.com%2Fcss%3Ffamily%3DJetBrains%2BMono;" vertex="1" parent="1">
          <mxGeometry x="-69.05000000000001" y="260" width="98" height="30" as="geometry" />
        </mxCell>
        <mxCell id="gVldJFzOIA-WBot7rfre-7" value="re.ver.se" style="html=1;whiteSpace=wrap;aspect=fixed;shape=isoRectangle;fontFamily=JetBrains Mono;fontSource=https%3A%2F%2Ffonts.googleapis.com%2Fcss%3Ffamily%3DJetBrains%2BMono;fontSize=10;fillColor=#fad9d5;strokeColor=#ae4132;" vertex="1" parent="1">
          <mxGeometry x="-60" y="420" width="80" height="48" as="geometry" />
        </mxCell>
        <mxCell id="gVldJFzOIA-WBot7rfre-8" value="&lt;p style=&quot;line-height: 0.8;&quot;&gt;&lt;/p&gt;&lt;div&gt;&lt;font style=&quot;font-size: 10px;&quot;&gt;vless&lt;/font&gt;&lt;/div&gt;&lt;font size=&quot;1&quot;&gt;&lt;i&gt;QUIC&lt;/i&gt;&lt;/font&gt;&lt;br&gt;&lt;p&gt;&lt;/p&gt;" style="shape=or;whiteSpace=wrap;html=1;fillColor=#f8cecc;strokeColor=#b85450;fontFamily=JetBrains Mono;fontSource=https%3A%2F%2Ffonts.googleapis.com%2Fcss%3Ffamily%3DJetBrains%2BMono;" vertex="1" parent="1">
          <mxGeometry x="-110" y="326" width="60" height="43.64" as="geometry" />
        </mxCell>
        <mxCell id="gVldJFzOIA-WBot7rfre-9" value="TCP" style="html=1;shadow=0;dashed=0;align=center;verticalAlign=middle;shape=mxgraph.arrows2.arrow;dy=0;dx=10;notch=0;fillColor=#dae8fc;strokeColor=#6c8ebf;fontFamily=JetBrains Mono;fontSource=https%3A%2F%2Ffonts.googleapis.com%2Fcss%3Ffamily%3DJetBrains%2BMono;flipH=1;rotation=300;" vertex="1" parent="1">
          <mxGeometry x="-20" y="390" width="65.45" height="15" as="geometry" />
        </mxCell>
        <mxCell id="gVldJFzOIA-WBot7rfre-10" value="TCP" style="html=1;shadow=0;dashed=0;align=center;verticalAlign=middle;shape=mxgraph.arrows2.arrow;dy=0;dx=10;notch=0;fillColor=#dae8fc;strokeColor=#6c8ebf;fontFamily=JetBrains Mono;fontSource=https%3A%2F%2Ffonts.googleapis.com%2Fcss%3Ffamily%3DJetBrains%2BMono;flipH=1;rotation=60;" vertex="1" parent="1">
          <mxGeometry x="-79.13" y="387.5" width="65.45" height="13" as="geometry" />
        </mxCell>
        <mxCell id="gVldJFzOIA-WBot7rfre-11" value="&lt;div style=&quot;font-size: 10px;&quot;&gt;&lt;font style=&quot;font-size: 10px;&quot;&gt;re.ver.se&lt;/font&gt;&lt;/div&gt;" style="html=1;shadow=0;dashed=0;align=center;verticalAlign=middle;shape=mxgraph.arrows2.arrow;dy=0;dx=10;notch=0;fillColor=#b0e3e6;strokeColor=#0e8088;fontFamily=JetBrains Mono;fontSource=https%3A%2F%2Ffonts.googleapis.com%2Fcss%3Ffamily%3DJetBrains%2BMono;flipH=0;rotation=60;" vertex="1" parent="1">
          <mxGeometry x="-91" y="394" width="65.45" height="13" as="geometry" />
        </mxCell>
        <mxCell id="gVldJFzOIA-WBot7rfre-12" value="" style="rounded=0;whiteSpace=wrap;html=1;fontFamily=JetBrains Mono;fontSource=https%3A%2F%2Ffonts.googleapis.com%2Fcss%3Ffamily%3DJetBrains%2BMono;" vertex="1" parent="1">
          <mxGeometry x="-350" y="290" width="119.91" height="180" as="geometry" />
        </mxCell>
        <mxCell id="gVldJFzOIA-WBot7rfre-13" value="内网转发服务器" style="text;strokeColor=none;fillColor=none;html=1;fontSize=16;fontStyle=0;verticalAlign=middle;align=center;fontFamily=JetBrains Mono;fontSource=https%3A%2F%2Ffonts.googleapis.com%2Fcss%3Ffamily%3DJetBrains%2BMono;" vertex="1" parent="1">
          <mxGeometry x="-339.05" y="260" width="98" height="30" as="geometry" />
        </mxCell>
        <mxCell id="gVldJFzOIA-WBot7rfre-14" value="&lt;div style=&quot;font-size: 10px;&quot;&gt;&lt;font style=&quot;font-size: 10px;&quot;&gt;vless&lt;/font&gt;&lt;/div&gt;&lt;div style=&quot;font-size: 10px;&quot;&gt;&lt;font style=&quot;font-size: 10px;&quot;&gt;&lt;i&gt;QUIC&lt;/i&gt;&lt;br&gt;&lt;/font&gt;&lt;/div&gt;" style="shape=or;whiteSpace=wrap;html=1;fillColor=#d5e8d4;strokeColor=#82b366;fontFamily=JetBrains Mono;fontSource=https%3A%2F%2Ffonts.googleapis.com%2Fcss%3Ffamily%3DJetBrains%2BMono;" vertex="1" parent="1">
          <mxGeometry x="-260" y="328" width="55.45" height="43.64" as="geometry" />
        </mxCell>
        <mxCell id="gVldJFzOIA-WBot7rfre-15" value="freedom" style="shape=or;whiteSpace=wrap;html=1;fillColor=#d5e8d4;strokeColor=#82b366;fontFamily=JetBrains Mono;fontSource=https%3A%2F%2Ffonts.googleapis.com%2Fcss%3Ffamily%3DJetBrains%2BMono;flipH=1;" vertex="1" parent="1">
          <mxGeometry x="-380" y="328" width="55.45" height="43.64" as="geometry" />
        </mxCell>
        <mxCell id="gVldJFzOIA-WBot7rfre-16" value="re.ver.se" style="html=1;whiteSpace=wrap;aspect=fixed;shape=isoRectangle;fontFamily=JetBrains Mono;fontSource=https%3A%2F%2Ffonts.googleapis.com%2Fcss%3Ffamily%3DJetBrains%2BMono;fontSize=10;fillColor=#b0e3e6;strokeColor=#0e8088;" vertex="1" parent="1">
          <mxGeometry x="-330.05" y="422" width="80" height="48" as="geometry" />
        </mxCell>
        <mxCell id="gVldJFzOIA-WBot7rfre-17" value="&lt;div style=&quot;font-size: 10px;&quot;&gt;&lt;font style=&quot;font-size: 10px;&quot;&gt;re.ver.se&lt;/font&gt;&lt;/div&gt;" style="html=1;shadow=0;dashed=0;align=center;verticalAlign=middle;shape=mxgraph.arrows2.arrow;dy=0;dx=10;notch=0;fillColor=#b0e3e6;strokeColor=#0e8088;fontFamily=JetBrains Mono;fontSource=https%3A%2F%2Ffonts.googleapis.com%2Fcss%3Ffamily%3DJetBrains%2BMono;flipH=0;rotation=0;" vertex="1" parent="1">
          <mxGeometry x="-200" y="342.75" width="86" height="16.5" as="geometry" />
        </mxCell>
        <mxCell id="gVldJFzOIA-WBot7rfre-18" value="TCP" style="html=1;shadow=0;dashed=0;align=center;verticalAlign=middle;shape=mxgraph.arrows2.arrow;dy=0;dx=10;notch=0;fillColor=#dae8fc;strokeColor=#6c8ebf;fontFamily=JetBrains Mono;fontSource=https%3A%2F%2Ffonts.googleapis.com%2Fcss%3Ffamily%3DJetBrains%2BMono;flipH=1;rotation=0;" vertex="1" parent="1">
          <mxGeometry x="-200" y="327.75" width="80" height="15" as="geometry" />
        </mxCell>
        <mxCell id="gVldJFzOIA-WBot7rfre-19" value="&lt;font style=&quot;font-size: 10px;&quot;&gt;vless+&lt;i&gt;QUIC&lt;/i&gt;&lt;/font&gt;" style="html=1;shadow=0;dashed=0;align=center;verticalAlign=middle;shape=mxgraph.arrows2.arrow;dy=0;dx=10;notch=0;fillColor=#fff2cc;strokeColor=#d6b656;fontFamily=JetBrains Mono;fontSource=https%3A%2F%2Ffonts.googleapis.com%2Fcss%3Ffamily%3DJetBrains%2BMono;" vertex="1" parent="1">
          <mxGeometry x="-200" y="360" width="80" height="15" as="geometry" />
        </mxCell>
        <mxCell id="gVldJFzOIA-WBot7rfre-20" value="TCP" style="html=1;shadow=0;dashed=0;align=center;verticalAlign=middle;shape=mxgraph.arrows2.arrow;dy=0;dx=10;notch=0;fillColor=#dae8fc;strokeColor=#6c8ebf;fontFamily=JetBrains Mono;fontSource=https%3A%2F%2Ffonts.googleapis.com%2Fcss%3Ffamily%3DJetBrains%2BMono;flipH=1;rotation=300;" vertex="1" parent="1">
          <mxGeometry x="-300" y="392" width="62.28" height="13" as="geometry" />
        </mxCell>
        <mxCell id="gVldJFzOIA-WBot7rfre-21" value="&lt;div style=&quot;font-size: 10px;&quot;&gt;&lt;font style=&quot;font-size: 10px;&quot;&gt;re.ver.se&lt;/font&gt;&lt;/div&gt;" style="html=1;shadow=0;dashed=0;align=center;verticalAlign=middle;shape=mxgraph.arrows2.arrow;dy=0;dx=10;notch=0;fillColor=#b0e3e6;strokeColor=#0e8088;fontFamily=JetBrains Mono;fontSource=https%3A%2F%2Ffonts.googleapis.com%2Fcss%3Ffamily%3DJetBrains%2BMono;flipH=0;rotation=300;" vertex="1" parent="1">
          <mxGeometry x="-288.72" y="396" width="65.45" height="13" as="geometry" />
        </mxCell>
        <mxCell id="gVldJFzOIA-WBot7rfre-22" value="TCP" style="html=1;shadow=0;dashed=0;align=center;verticalAlign=middle;shape=mxgraph.arrows2.arrow;dy=0;dx=10;notch=0;fillColor=#dae8fc;strokeColor=#6c8ebf;fontFamily=JetBrains Mono;fontSource=https%3A%2F%2Ffonts.googleapis.com%2Fcss%3Ffamily%3DJetBrains%2BMono;flipH=1;rotation=60;" vertex="1" parent="1">
          <mxGeometry x="-350" y="394" width="62.28" height="13" as="geometry" />
        </mxCell>
        <mxCell id="gVldJFzOIA-WBot7rfre-23" value="&lt;div&gt;网页服务器&lt;/div&gt;" style="rounded=1;whiteSpace=wrap;html=1;fontFamily=JetBrains Mono;fontSource=https%3A%2F%2Ffonts.googleapis.com%2Fcss%3Ffamily%3DJetBrains%2BMono;" vertex="1" parent="1">
          <mxGeometry x="-538.18" y="287" width="78.18" height="120" as="geometry" />
        </mxCell>
        <mxCell id="gVldJFzOIA-WBot7rfre-24" value="" style="rounded=0;whiteSpace=wrap;html=1;fontFamily=JetBrains Mono;fontSource=https%3A%2F%2Ffonts.googleapis.com%2Fcss%3Ffamily%3DJetBrains%2BMono;" vertex="1" parent="1">
          <mxGeometry x="200" y="290" width="119.91" height="180" as="geometry" />
        </mxCell>
        <mxCell id="gVldJFzOIA-WBot7rfre-25" value="&lt;div&gt;vless&lt;/div&gt;&lt;div&gt;&lt;i&gt;QUIC&lt;/i&gt;&lt;br&gt;&lt;/div&gt;" style="shape=or;whiteSpace=wrap;html=1;fillColor=#f8cecc;strokeColor=#b85450;fontFamily=JetBrains Mono;fontSource=https%3A%2F%2Ffonts.googleapis.com%2Fcss%3Ffamily%3DJetBrains%2BMono;flipH=1;fontSize=10;" vertex="1" parent="1">
          <mxGeometry x="290" y="325" width="50" height="44" as="geometry" />
        </mxCell>
        <mxCell id="gVldJFzOIA-WBot7rfre-26" value="客户端" style="text;strokeColor=none;fillColor=none;html=1;fontSize=16;fontStyle=0;verticalAlign=middle;align=center;fontFamily=JetBrains Mono;fontSource=https%3A%2F%2Ffonts.googleapis.com%2Fcss%3Ffamily%3DJetBrains%2BMono;" vertex="1" parent="1">
          <mxGeometry x="210.95" y="260" width="98" height="30" as="geometry" />
        </mxCell>
        <mxCell id="gVldJFzOIA-WBot7rfre-32" value="&lt;div&gt;vless&lt;/div&gt;&lt;div&gt;&lt;i&gt;QUIC&lt;/i&gt;&lt;br&gt;&lt;/div&gt;" style="shape=or;whiteSpace=wrap;html=1;fillColor=#d5e8d4;strokeColor=#82b366;fontFamily=JetBrains Mono;fontSource=https%3A%2F%2Ffonts.googleapis.com%2Fcss%3Ffamily%3DJetBrains%2BMono;flipH=1;" vertex="1" parent="1">
          <mxGeometry x="170" y="325.18" width="55.45" height="43.64" as="geometry" />
        </mxCell>
        <mxCell id="gVldJFzOIA-WBot7rfre-33" value="TCP" style="html=1;shadow=0;dashed=0;align=center;verticalAlign=middle;shape=mxgraph.arrows2.arrow;dy=0;dx=10;notch=0;fillColor=#dae8fc;strokeColor=#6c8ebf;fontFamily=JetBrains Mono;fontSource=https%3A%2F%2Ffonts.googleapis.com%2Fcss%3Ffamily%3DJetBrains%2BMono;flipH=1;" vertex="1" parent="1">
          <mxGeometry x="228" y="337" width="60" height="20" as="geometry" />
        </mxCell>
        <mxCell id="gVldJFzOIA-WBot7rfre-35" value="TCP" style="html=1;shadow=0;dashed=0;align=center;verticalAlign=middle;shape=mxgraph.arrows2.arrow;dy=0;dx=10;notch=0;fillColor=#dae8fc;strokeColor=#6c8ebf;fontFamily=JetBrains Mono;fontSource=https%3A%2F%2Ffonts.googleapis.com%2Fcss%3Ffamily%3DJetBrains%2BMono;flipH=1;" vertex="1" parent="1">
          <mxGeometry x="343" y="341" width="60" height="20" as="geometry" />
        </mxCell>
        <mxCell id="gVldJFzOIA-WBot7rfre-36" value="&lt;font style=&quot;font-size: 10px;&quot;&gt;vless+&lt;i&gt;QUIC&lt;/i&gt;&lt;/font&gt;" style="html=1;shadow=0;dashed=0;align=center;verticalAlign=middle;shape=mxgraph.arrows2.arrow;dy=0;dx=10;notch=0;fillColor=#fff2cc;strokeColor=#d6b656;fontFamily=JetBrains Mono;fontSource=https%3A%2F%2Ffonts.googleapis.com%2Fcss%3Ffamily%3DJetBrains%2BMono;flipH=1;" vertex="1" parent="1">
          <mxGeometry x="90" y="348.18" width="75.45" height="15" as="geometry" />
        </mxCell>
      </root>
    </mxGraphModel>
  </diagram>
  <diagram id="xqaEGHYJj7u1L9espNnr" name="五层模型">
    <mxGraphModel dx="803" dy="573" grid="1" gridSize="10" guides="1" tooltips="1" connect="1" arrows="1" fold="1" page="1" pageScale="1" pageWidth="827" pageHeight="1169" math="0" shadow="0">
      <root>
        <mxCell id="0" />
        <mxCell id="1" parent="0" />
        <mxCell id="zl02PebWC8Mvx-tqmNqG-1" value="1. 物理层: 网线 光纤 无线信道" style="rounded=0;whiteSpace=wrap;html=1;fontFamily=JetBrains Mono;fontSource=https%3A%2F%2Ffonts.googleapis.com%2Fcss%3Ffamily%3DJetBrains%2BMono;fontSize=15;align=left;spacingLeft=20;fillColor=#ffe6cc;strokeColor=#d79b00;fontColor=#949494;" vertex="1" parent="1">
          <mxGeometry x="100" y="330" width="340" height="30" as="geometry" />
        </mxCell>
        <mxCell id="zl02PebWC8Mvx-tqmNqG-2" value="2. 数据链路层: Wi-Fi 以太网 MAC地址" style="rounded=0;whiteSpace=wrap;html=1;fontFamily=JetBrains Mono;fontSource=https%3A%2F%2Ffonts.googleapis.com%2Fcss%3Ffamily%3DJetBrains%2BMono;fontSize=15;align=left;spacingLeft=20;fillColor=#fff2cc;strokeColor=#d6b656;fontColor=#949494;" vertex="1" parent="1">
          <mxGeometry x="100" y="290" width="320" height="30" as="geometry" />
        </mxCell>
        <mxCell id="zl02PebWC8Mvx-tqmNqG-3" value="&lt;div&gt;3. 网络层: IP&lt;br&gt;&lt;/div&gt;" style="rounded=0;whiteSpace=wrap;html=1;fontFamily=JetBrains Mono;fontSource=https%3A%2F%2Ffonts.googleapis.com%2Fcss%3Ffamily%3DJetBrains%2BMono;fontSize=15;align=left;spacingLeft=20;fillColor=#dae8fc;strokeColor=#6c8ebf;fontColor=#949494;" vertex="1" parent="1">
          <mxGeometry x="100" y="250" width="300" height="30" as="geometry" />
        </mxCell>
        <mxCell id="zl02PebWC8Mvx-tqmNqG-4" value="4. 传输层: TCP" style="rounded=0;whiteSpace=wrap;html=1;fontFamily=JetBrains Mono;fontSource=https%3A%2F%2Ffonts.googleapis.com%2Fcss%3Ffamily%3DJetBrains%2BMono;fontSize=15;align=left;spacingLeft=20;fillColor=#d5e8d4;strokeColor=#82b366;" vertex="1" parent="1">
          <mxGeometry x="100" y="210" width="280" height="30" as="geometry" />
        </mxCell>
        <mxCell id="zl02PebWC8Mvx-tqmNqG-5" value="5. 应用层: HTTP(网页)" style="rounded=0;whiteSpace=wrap;html=1;fontFamily=JetBrains Mono;fontSource=https%3A%2F%2Ffonts.googleapis.com%2Fcss%3Ffamily%3DJetBrains%2BMono;fontSize=15;align=left;spacingLeft=20;fillColor=#e1d5e7;strokeColor=#9673a6;fontColor=#949494;" vertex="1" parent="1">
          <mxGeometry x="100" y="170" width="260" height="30" as="geometry" />
        </mxCell>
      </root>
    </mxGraphModel>
  </diagram>
</mxfile>
